<svg id="レイヤー_1" data-name="レイヤー 1" xmlns="http://www.w3.org/2000/svg" xmlns:xlink="http://www.w3.org/1999/xlink" viewBox="0 0 58.92 58.92"><defs><style>.cls-1,.cls-18{fill:none;stroke-miterlimit:10;}.cls-1{stroke:#e37d62;stroke-width:2px;}.cls-2{fill:url(#名称未設定グラデーション_15);}.cls-3{fill:url(#名称未設定グラデーション_11);}.cls-4{fill:url(#名称未設定グラデーション_11-2);}.cls-5{fill:url(#名称未設定グラデーション_11-3);}.cls-6{fill:url(#名称未設定グラデーション_11-4);}.cls-7{fill:url(#名称未設定グラデーション_11-5);}.cls-8{fill:url(#名称未設定グラデーション_11-6);}.cls-17,.cls-9{fill:#e37d62;}.cls-10{fill:url(#名称未設定グラデーション_15-2);}.cls-11{fill:url(#名称未設定グラデーション_11-7);}.cls-12{fill:url(#名称未設定グラデーション_11-8);}.cls-13{fill:url(#名称未設定グラデーション_11-9);}.cls-14{fill:url(#名称未設定グラデーション_11-10);}.cls-15{fill:url(#名称未設定グラデーション_11-11);}.cls-16{fill:url(#名称未設定グラデーション_11-12);}.cls-17{opacity:0.64;}.cls-18{stroke:#d7615e;stroke-width:0.75px;opacity:0.5;}.cls-19{fill:url(#名称未設定グラデーション_15-3);}.cls-20{fill:url(#名称未設定グラデーション_15-4);}</style><radialGradient id="名称未設定グラデーション_15" cx="59.26" cy="36.17" r="19.95" gradientTransform="matrix(0.99, 0.16, -0.16, 0.99, -25.51, -7.39)" gradientUnits="userSpaceOnUse"><stop offset="0.15" stop-color="#e37d62"/><stop offset="1" stop-color="#e27d92"/></radialGradient><radialGradient id="名称未設定グラデーション_11" cx="18.89" cy="34.33" r="0.76" gradientUnits="userSpaceOnUse"><stop offset="0.4" stop-color="#e37d62"/><stop offset="0.94" stop-color="#e27d95"/><stop offset="0.95" stop-color="#e27d92"/></radialGradient><radialGradient id="名称未設定グラデーション_11-2" cx="19.22" cy="28.57" r="1.53" xlink:href="#名称未設定グラデーション_11"/><radialGradient id="名称未設定グラデーション_11-3" cx="19.22" cy="31.83" r="0.76" xlink:href="#名称未設定グラデーション_11"/><radialGradient id="名称未設定グラデーション_11-4" cx="20.68" cy="35.09" r="0.76" xlink:href="#名称未設定グラデーション_11"/><radialGradient id="名称未設定グラデーション_11-5" cx="24.14" cy="30.99" r="1.53" xlink:href="#名称未設定グラデーション_11"/><radialGradient id="名称未設定グラデーション_11-6" cx="22.21" cy="32.97" r="0.76" xlink:href="#名称未設定グラデーション_11"/><radialGradient id="名称未設定グラデーション_15-2" cx="-48.64" cy="-295.37" r="11.29" gradientTransform="translate(199.22 -242.11) rotate(-138.7)" xlink:href="#名称未設定グラデーション_15"/><radialGradient id="名称未設定グラデーション_11-7" cx="43.4" cy="15.13" r="0.33" xlink:href="#名称未設定グラデーション_11"/><radialGradient id="名称未設定グラデーション_11-8" cx="42.22" cy="15.13" r="0.38" xlink:href="#名称未設定グラデーション_11"/><radialGradient id="名称未設定グラデーション_11-9" cx="40.99" cy="15.26" r="0.46" xlink:href="#名称未設定グラデーション_11"/><radialGradient id="名称未設定グラデーション_11-10" cx="43.4" cy="16.04" r="0.33" xlink:href="#名称未設定グラデーション_11"/><radialGradient id="名称未設定グラデーション_11-11" cx="42.49" cy="16.75" r="0.38" xlink:href="#名称未設定グラデーション_11"/><radialGradient id="名称未設定グラデーション_11-12" cx="41.44" cy="17.59" r="0.46" xlink:href="#名称未設定グラデーション_11"/><radialGradient id="名称未設定グラデーション_15-3" cx="11.34" cy="44.5" r="7.44" gradientTransform="matrix(1, 0, 0, 1, 0, 0)" xlink:href="#名称未設定グラデーション_15"/><radialGradient id="名称未設定グラデーション_15-4" cx="-122.91" cy="-29.92" r="7.44" gradientTransform="matrix(-0.52, -0.86, -0.86, 0.52, -73.12, -42.84)" xlink:href="#名称未設定グラデーション_15"/></defs><title>co-creation</title><circle class="cls-1" cx="29.46" cy="29.46" r="28.46"/><polygon class="cls-2" points="13.01 16.04 24.04 56.95 49.85 26.53 5.7 41.23 13.01 16.04"/><circle class="cls-3" cx="18.89" cy="34.33" r="0.76"/><circle class="cls-4" cx="19.22" cy="28.57" r="1.53"/><circle class="cls-5" cx="19.22" cy="31.83" r="0.76"/><circle class="cls-6" cx="20.68" cy="35.09" r="0.76"/><circle class="cls-7" cx="24.14" cy="30.99" r="1.53"/><circle class="cls-8" cx="22.21" cy="32.97" r="0.76"/><path class="cls-9" d="M18.6,35.86" transform="translate(-0.14 -0.78)"/><polygon class="cls-10" points="41.02 26.6 47.98 3.65 26.48 10.52 52.08 16.7 41.02 26.6"/><circle class="cls-11" cx="43.4" cy="15.13" r="0.33"/><circle class="cls-12" cx="42.22" cy="15.13" r="0.38"/><circle class="cls-13" cx="40.99" cy="15.26" r="0.46"/><circle class="cls-14" cx="43.4" cy="16.04" r="0.33"/><circle class="cls-15" cx="42.49" cy="16.75" r="0.38"/><circle class="cls-16" cx="41.44" cy="17.59" r="0.46"/><path class="cls-9" d="M25.81,11.26" transform="translate(-0.14 -0.78)"/><path class="cls-17" d="M29.19,25.69c2.11-.74,2.56-.53,3.74-1.1a8.3,8.3,0,0,0,3.68-3.78,11.15,11.15,0,0,1-4,2.48c-1.69.57-8.34,2.33-11.36,8.34a13.63,13.63,0,0,1,3.86-4A16.81,16.81,0,0,1,29.19,25.69Z" transform="translate(-0.14 -0.78)"/><path class="cls-17" d="M32.49,20.17c-1.81,1.33-1.88,1.82-3,2.47a8.34,8.34,0,0,1-5.2.93,11,11,0,0,0,4.3-1.92c1.43-1.08,6.61-5.6,13.29-4.72a14,14,0,0,0-5.47.95A17.11,17.11,0,0,0,32.49,20.17Z" transform="translate(-0.14 -0.78)"/><circle class="cls-18" cx="29.88" cy="29.63" r="21.61"/><polygon class="cls-19" points="18.64 36.92 14.16 38.41 4.03 52.08 18.64 36.92"/><polygon class="cls-20" points="18.73 36.76 19.77 41.36 13.31 57.09 18.73 36.76"/></svg>