<svg id="レイヤー_1" data-name="レイヤー 1" xmlns="http://www.w3.org/2000/svg" xmlns:xlink="http://www.w3.org/1999/xlink" viewBox="0 0 58.92 58.92"><defs><style>.cls-1,.cls-2{fill:none;}.cls-1,.cls-4{stroke:#e37d62;stroke-width:2px;}.cls-1,.cls-2,.cls-3,.cls-4{stroke-miterlimit:10;}.cls-2,.cls-3{stroke:#d87888;}.cls-3{opacity:0.91;fill:url(#名称未設定グラデーション_4);}.cls-4{fill:#e37d62;}</style><radialGradient id="名称未設定グラデーション_4" cx="35.53" cy="39.63" r="10.58" gradientUnits="userSpaceOnUse"><stop offset="0" stop-color="#e27d92"/><stop offset="1" stop-color="#e37d62"/></radialGradient></defs><title>co-working</title><path class="cls-1" d="M1.31,30.11A28.46,28.46,0,1,1,29.77,58.57c-10.9,0-18.49-6.76-19.67-7.89C9.07,49.7,1.31,41.77,1.31,30.11Z" transform="translate(-0.31 -0.65)"/><path class="cls-2" d="M26.73,23.11A14.53,14.53,0,1,1,41.26,37.64a15.43,15.43,0,0,1-10-4A15.53,15.53,0,0,1,26.73,23.11Z" transform="translate(-0.31 -0.65)"/><path class="cls-2" d="M2.69,33.23A16.42,16.42,0,1,1,19.11,49.65,17.41,17.41,0,0,1,7.76,45.1,17.58,17.58,0,0,1,2.69,33.23Z" transform="translate(-0.31 -0.65)"/><path class="cls-3" d="M25,39.63A10.58,10.58,0,1,1,35.53,50.21a11.21,11.21,0,0,1-7.31-2.93A11.34,11.34,0,0,1,25,39.63Z" transform="translate(-0.31 -0.65)"/><line class="cls-4" x1="35.23" y1="0.78" x2="35.23" y2="57.7"/><line class="cls-4" x1="1" y1="29.07" x2="57.92" y2="29.07"/></svg>