<svg id="レイヤー_1" data-name="レイヤー 1" xmlns="http://www.w3.org/2000/svg" viewBox="0 0 58.92 58.92"><defs><style>.cls-1,.cls-4{fill:#e37d62;}.cls-2,.cls-3{fill:none;}.cls-2,.cls-3,.cls-4{stroke:#e37d62;stroke-miterlimit:10;}.cls-2{stroke-width:2px;}</style></defs><title>design</title><path class="cls-1" d="M17.75,39.21s-1.76-.3-1.06-2.94S18,33.17,18,33.17a1.53,1.53,0,0,1,.41.88.11.11,0,0,0,.21,0h0a.11.11,0,0,1,.21,0C19.08,35.24,19.86,39.49,17.75,39.21Z" transform="translate(-0.54 -0.78)"/><path class="cls-1" d="M16.59,39.72s-1.14,1.38-3.07-.55-2-2.68-2-2.68a1.51,1.51,0,0,1,1,.09.12.12,0,0,0,.14-.17h0a.12.12,0,0,1,.14-.17C13.82,36.58,17.89,38,16.59,39.72Z" transform="translate(-0.54 -0.78)"/><path class="cls-1" d="M16.46,41s.62,1.68-2,2.39-3.34.41-3.34.41a1.65,1.65,0,0,1,.57-.79.12.12,0,0,0-.08-.21h0a.12.12,0,0,1-.08-.21C12.36,41.81,15.65,39,16.46,41Z" transform="translate(-0.54 -0.78)"/><path class="cls-1" d="M17.48,41.73s1.77.3,1.06,2.94-1.31,3.1-1.31,3.1a1.64,1.64,0,0,1-.4-.89.12.12,0,0,0-.22,0h0a.12.12,0,0,1-.22,0C16.15,45.7,15.37,41.45,17.48,41.73Z" transform="translate(-0.54 -0.78)"/><path class="cls-1" d="M18.64,41.22s1.14-1.39,3.07.55,2,2.68,2,2.68a1.61,1.61,0,0,1-1-.09.12.12,0,0,0-.15.17h0a.12.12,0,0,1-.15.17C21.41,44.35,17.34,42.9,18.64,41.22Z" transform="translate(-0.54 -0.78)"/><path class="cls-1" d="M18.78,40s-.63-1.67,2-2.38,3.34-.42,3.34-.42a1.57,1.57,0,0,1-.56.8.11.11,0,0,0,.07.2h0a.12.12,0,0,1,.07.21C22.88,39.12,19.59,41.92,18.78,40Z" transform="translate(-0.54 -0.78)"/><circle class="cls-2" cx="29.46" cy="29.46" r="28.46"/><polygon class="cls-1" points="16.52 3.82 2.36 28.36 30.69 28.36 16.52 3.82"/><polygon class="cls-3" points="45.3 51.02 57.22 30.39 33.39 30.39 45.3 51.02"/><circle class="cls-1" cx="35.18" cy="49.69" r="7.11"/><circle class="cls-3" cx="44.36" cy="15.13" r="7.11"/><rect class="cls-3" x="8.23" y="31.06" width="17.26" height="17.26"/><rect class="cls-4" x="24.34" y="3.82" width="9.58" height="9.58"/></svg>